<svg width="1474" height="903" viewBox="0 0 1474 903" fill="none" xmlns="http://www.w3.org/2000/svg">
<g filter="url(#filter0_f_181_140)">
<circle cx="233.432" cy="251.81" r="132.909" fill="url(#paint0_radial_181_140)" fill-opacity="0.5"/>
</g>
<g filter="url(#filter1_f_181_140)">
<path d="M706.663 751.008C628.434 761.721 558.332 721.588 550.085 661.368C541.838 601.148 598.569 543.644 676.797 532.931C755.025 522.218 917.791 530.643 926.038 590.863C934.286 651.083 784.891 740.294 706.663 751.008Z" fill="#FFBE0B" fill-opacity="0.3"/>
</g>
<g filter="url(#filter2_f_181_140)">
<path d="M1318.7 450.23C1349.62 567.679 1230.31 652.374 1118.01 681.946C1005.71 711.517 998.721 554.522 967.794 437.073C952.72 379.831 846.26 284.225 871.365 236.734C897.771 186.783 1086.17 168.912 1143.74 153.753C1256.04 124.181 1287.77 332.781 1318.7 450.23Z" fill="#FF006E" fill-opacity="0.25"/>
</g>
<defs>
<filter id="filter0_f_181_140" x="0.522949" y="18.9004" width="465.819" height="465.818" filterUnits="userSpaceOnUse" color-interpolation-filters="sRGB">
<feFlood flood-opacity="0" result="BackgroundImageFix"/>
<feBlend mode="normal" in="SourceGraphic" in2="BackgroundImageFix" result="shape"/>
<feGaussianBlur stdDeviation="50" result="effect1_foregroundBlur_181_140"/>
</filter>
<filter id="filter1_f_181_140" x="399.288" y="378.973" width="677.078" height="523.766" filterUnits="userSpaceOnUse" color-interpolation-filters="sRGB">
<feFlood flood-opacity="0" result="BackgroundImageFix"/>
<feBlend mode="normal" in="SourceGraphic" in2="BackgroundImageFix" result="shape"/>
<feGaussianBlur stdDeviation="75" result="effect1_foregroundBlur_181_140"/>
</filter>
<filter id="filter2_f_181_140" x="717.551" y="0.915039" width="756.107" height="834.667" filterUnits="userSpaceOnUse" color-interpolation-filters="sRGB">
<feFlood flood-opacity="0" result="BackgroundImageFix"/>
<feBlend mode="normal" in="SourceGraphic" in2="BackgroundImageFix" result="shape"/>
<feGaussianBlur stdDeviation="75" result="effect1_foregroundBlur_181_140"/>
</filter>
<radialGradient id="paint0_radial_181_140" cx="0" cy="0" r="1" gradientUnits="userSpaceOnUse" gradientTransform="translate(233.432 251.81) rotate(90) scale(132.909)">
<stop stop-color="#2EC4B6"/>
<stop offset="0.455" stop-color="#2EC4B6" stop-opacity="0.5"/>
<stop offset="1" stop-color="#2EC4B6" stop-opacity="0"/>
</radialGradient>
</defs>
</svg>
